# xmcd
#
# Track frame offsets:
#	150
#	17341
#	31033
#	48668
#	62402
#	79782
#	94607
#	119655
#	133682
#	153137
#	166498
#	178918
#	193769
#	218942
#	233028
#	250088
#	272294
#
# Disc length: 3758 seconds
#
# Revision: 1
# Processed by: cddbd v1.5.2PL0 Copyright (c) Steve Scherf et al.
# Submitted via: audiograbber 1.83.01
#
DISCID=db0eac11
DTITLE=Die Grenzgänger - Brot and Rosen
DYEAR=2017
DGENRE=Deutsch
TTITLE0=Die Loreley
TTITLE1=Wenn alle Brünnlein fließen
TTITLE2=Gegensätze ziehen sich an
TTITLE3=In Hamburg - Meine Mutter
TTITLE4=Verdenk mir's nicht
TTITLE5=Feinsliebchen
TTITLE6=Von heute nach morgen
TTITLE7=Lied der Flüchtlinge
TTITLE8=Königskinder
TTITLE9=Ein schwarzbraunes Mädchen
TTITLE10=Wenn ich an den letzten Abend denk
TTITLE11=O Tannenbaum
TTITLE12=Die Magd und der Graf
TTITLE13=Es fiel ein Reif in der Frühlingsnacht
TTITLE14=Ode an die Freude
TTITLE15=Hochzeitswalzer
TTITLE16=Marie - Mara - Maruschkaka
EXTD=
EXTT0=
EXTT1=
EXTT2=
EXTT3=
EXTT4=
EXTT5=
EXTT6=
EXTT7=
EXTT8=
EXTT9=
EXTT10=
EXTT11=
EXTT12=
EXTT13=
EXTT14=
EXTT15=
EXTT16=
PLAYORDER=
